<svg
   xmlns="http://www.w3.org/2000/svg"
   viewBox="0 0 848.33044 203.07691"
   height="203.07692"
   width="848.33044">
  <g transform="translate(-57.230769,-600.82379)">
    <g id="logo">
      <g
         id="logo-wheel"
         transform="matrix(0.38461538,0,0,0.38461538,0,577.36225)">
        <path
           d="m 348.8,225 c 27.6,0 52.6,11.2 70.7,29.2 L 441.7,232 c -23.8,-23.7 -56.5,-38.4 -92.7,-38.4 -72.4,0 -131.3,58.9 -131.3,131.3 0,72.4 58.9,131.3 131.3,131.3 36.3,0 69.3,-14.8 93.1,-38.8 l -22.2,-22.2 c -18.2,18.5 -43.3,29.8 -71.1,29.8 -55.2,0 -100,-44.8 -100,-100 0,-55.2 44.8,-100 100,-100 z"
           style="fill:#ffffff;fill-opacity:0.7" />
        <path
           d="m 348.7,493.3 c -93,0 -168.7,-75.7 -168.7,-168.7 0,-93 75.7,-168.6 168.7,-168.6 46.6,0 88.8,19 119.4,49.6 l 22.1,-22.1 C 454,147.4 404,125 348.8,125 c -110.5,0 -200,89.5 -200,200 0,110.5 89.5,200 200,200 55.4,0 105.6,-22.5 141.8,-58.9 l -22.4,-22.4 c -30.6,30.6 -72.9,49.6 -119.5,49.6 z"
           style="fill:#ffffff;fill-opacity:0.7" />
        <path
           d="M 348.7,160 C 257.9,160 184,233.9 184,324.7 c 0,90.8 73.9,164.7 164.7,164.7 45.5,0 86.8,-18.6 116.6,-48.5 l -20.4,-20.4 c -24.5,24.7 -58.5,39.9 -95.9,39.9 -74.6,0 -135.3,-60.7 -135.3,-135.3 0,-74.6 60.7,-135.3 135.3,-135.3 37.2,0 71,15.1 95.5,39.5 l 20.7,-20.7 C 435.4,178.5 394.2,160 348.7,160 Z"
           style="fill:#ffffff;fill-opacity:0.7" />
      </g>
      <polygon
         id="logo-bolt"
         points="119.8,528 293,228 220.8,228 352.4,0 280,0 106.8,300 179,300 47.4,528 "
         style="fill:#ffffff"
         transform="matrix(0.38461538,0,0,0.38461538,57.230769,600.82379)" />
    </g>
    <g transform="matrix(4.3172475,0,-1.0802638,4.3172475,-690.72951,-286.66201)">
      <path
         style="fill:#ffffff"
         d="m 282.66211,246.2795 q -4.78516,0 -6.83594,-2.1875 -2.03125,-2.1875 -2.03125,-6.75781 l 0,-3.04688 6.79688,0 0,2.79297 q 0,3.00781 1.64062,3.00781 0.76172,0 1.19141,-0.58594 0.44922,-0.58593 0.44922,-1.54296 0,-1.25 -0.35157,-2.10938 -0.33203,-0.85937 -1.03515,-1.62109 -0.6836,-0.78125 -2.26563,-2.14844 l -2.91015,-2.51953 q -3.51563,-3.02735 -3.51563,-6.83594 0,-4.14062 2.10938,-6.15234 2.1289,-2.03125 5.83984,-2.03125 0.0977,0 0.17578,0 0.0781,0 1.03516,0 0.95703,0 2.46094,0.44922 1.5039,0.42968 2.67578,1.46484 1.17187,1.01562 1.75781,2.85156 0.58594,1.81641 0.58594,4.45313 l -6.97266,0 -0.0391,-1.875 q -0.0195,-0.52735 -0.44922,-0.9375 -0.42969,-0.41016 -0.95703,-0.41016 -0.6836,0 -1.17188,0.42969 -0.46875,0.41015 -0.46875,1.07422 0,1.32812 1.9336,2.89062 l 4.16015,3.35938 q 1.01563,0.82031 1.75782,1.67968 0.76171,0.83985 1.1914,1.67969 0.44922,0.82031 0.72266,1.50391 0.27344,0.66406 0.37109,1.46484 0.11719,0.78125 0.13672,1.19141 0.0195,0.39062 0.0195,1.03515 0,1.64063 -0.21484,2.98829 -0.21485,1.32812 -0.76172,2.57812 -0.54688,1.23047 -1.44531,2.07031 -0.87891,0.82032 -2.30469,1.3086 -1.40625,0.48828 -3.28125,0.48828 z" />
      <path
         style="fill:#ffffff"
         d="m 309.75195,232.5295 0,5.8789 q 0,4.0625 -2.30468,5.97657 -2.30469,1.89453 -6.44532,1.89453 -3.67187,0 -5.97656,-2.08985 -2.30469,-2.10937 -2.30469,-5.97656 l 0,-14.43359 q 0,-4.62891 2.03125,-6.91406 2.05078,-2.30469 6.40625,-2.30469 1.77735,0 3.28125,0.44922 1.50391,0.42968 2.65625,1.28906 1.17188,0.85937 1.83594,2.26562 0.66406,1.38672 0.66406,3.20313 l 0,5.48828 -6.79687,0 0,-3.61328 q 0,-2.79297 -1.64063,-2.79297 -0.97656,0 -1.28906,0.625 -0.3125,0.60547 -0.3125,1.69922 l 0,14.70703 q 0,0.95703 0.42969,1.66016 0.44922,0.70312 1.17187,0.70312 0.66407,0 1.15235,-0.50781 0.48828,-0.52734 0.48828,-1.85547 l 0,-5.35156 6.95312,0 z" />
      <path
         style="fill:#ffffff"
         d="m 319.47852,231.76778 q 0,0 0,14.16016 l -6.95313,0 0,-31.11329 10.54688,0 q 1.62109,0 2.77343,0.44922 1.15235,0.42969 1.81641,1.15235 0.66406,0.70312 1.03516,1.89453 0.39062,1.17187 0.50781,2.36328 0.11719,1.17187 0.11719,2.85156 0,0.87891 -0.0391,1.44531 -0.0195,0.54688 -0.21484,1.40625 -0.17578,0.83985 -0.50781,1.40625 -0.33203,0.56641 -1.01563,1.11329 -0.66406,0.54687 -1.62109,0.83984 0.95703,0.17578 1.58203,0.66406 0.625,0.46875 0.89844,1.17188 0.27343,0.70312 0.37109,1.30859 0.0977,0.58594 0.0977,1.32813 0,7.71484 -0.0781,11.71875 l -6.71875,0 0,-12.12891 q 0,-0.72266 -0.15625,-1.15234 -0.13672,-0.42969 -0.54687,-0.60547 -0.39063,-0.19532 -0.76172,-0.23438 -0.3711,-0.0391 -1.13281,-0.0391 z m 0.0391,-11.19141 0,5.80078 1.71875,0 q 1.36719,0 1.36719,-2.85156 0,-1.89453 -0.54688,-2.42187 -0.52734,-0.52735 -2.16797,-0.52735 l -0.37109,0 z" />
      <path
         style="fill:#ffffff"
         d="m 331.08008,237.5295 q 0,-3.88672 1.15234,-5.83985 0.9961,-1.67968 3.45703,-2.83203 1.25,-0.58593 5.58594,-2.07031 0,-0.0195 0,-0.0586 0,-0.625 -0.0195,-1.01563 0,-0.39062 -0.0195,-0.8789 0,-0.48829 -0.0195,-0.78125 -0.0195,-0.29297 -0.0586,-0.64454 -0.0391,-0.35156 -0.0977,-0.52734 -0.0391,-0.19531 -0.13672,-0.41016 -0.0781,-0.23437 -0.19531,-0.35156 -0.0977,-0.11719 -0.23438,-0.21484 -0.13672,-0.0977 -0.33203,-0.13672 -0.17578,-0.0391 -0.39063,-0.0391 -1.44531,0 -1.44531,1.60156 l 0,1.97266 -6.79687,0 q -0.0195,-0.33204 -0.0195,-0.95704 0,-4.17968 1.97265,-6.11328 1.99219,-1.95312 6.64063,-1.95312 1.5039,0 2.91015,0.42969 1.40625,0.41015 2.61719,1.25 1.21094,0.82031 1.93359,2.28515 0.74219,1.46485 0.74219,3.35938 l 0,22.32422 -6.95312,0 0,-3.04688 q -0.35157,1.28906 -1.6211,2.34375 -1.26953,1.05469 -2.73437,1.05469 -1.05469,0 -1.85547,-0.19531 -0.80078,-0.17579 -1.60156,-0.74219 -0.80078,-0.56641 -1.32813,-1.50391 -0.50781,-0.95703 -0.83984,-2.53906 -0.3125,-1.60156 -0.3125,-3.76953 z m 7.1289,-2.73438 q 0,0 0,3.41797 0,2.59766 1.5625,2.59766 0.42969,0 0.74219,-0.23438 0.3125,-0.23437 0.46875,-0.60547 0.15625,-0.37109 0.21485,-0.72265 0.0586,-0.35156 0.0586,-0.72266 l 0,-7.71484 q -1.79688,0.72265 -2.42188,1.69922 -0.625,0.95703 -0.625,2.28515 z" />
      <path
         style="fill:#ffffff"
         d="m 351.04102,236.31856 q 0,0 0,-9.02344 0,-5.9375 2.05078,-8.47656 2.05078,-2.53906 6.89453,-2.53906 3.76953,0 6.13281,1.99219 2.36328,1.99218 2.36328,5.48828 l 0,5 -7.1289,0 0,-4.62891 q 0,-1.09375 -0.33204,-1.73828 -0.3125,-0.66406 -1.23046,-0.66406 -1.71875,0 -1.71875,2.4414 l 0,14.19922 q 0,0.89844 0.39062,1.66016 0.39063,0.74219 1.28906,0.74219 0.25391,0 0.48828,-0.0977 0.25391,-0.0977 0.52735,-0.33203 0.29297,-0.23438 0.44922,-0.74219 0.17578,-0.52734 0.17578,-1.26953 l -0.0391,-4.39453 7.1289,0 0,4.58984 q 0,3.61328 -2.34375,5.6836 -2.32422,2.07031 -6.05469,2.07031 -1.71875,0 -3.10546,-0.33203 -1.38672,-0.33203 -2.32422,-0.85938 -0.91797,-0.54687 -1.60157,-1.36719 -0.68359,-0.82031 -1.07421,-1.64062 -0.3711,-0.82031 -0.60547,-1.875 -0.21485,-1.07422 -0.27344,-1.93359 -0.0586,-0.87891 -0.0586,-1.95313 z" />
      <path
         style="fill:#ffffff"
         d="m 379.14648,246.2795 q -1.5625,0 -2.83203,-0.33203 -1.26953,-0.3125 -2.14843,-0.82032 -0.85938,-0.52734 -1.50391,-1.30859 -0.625,-0.80078 -0.99609,-1.62109 -0.3711,-0.82032 -0.60547,-1.875 -0.21485,-1.05469 -0.29297,-1.95313 -0.0586,-0.89844 -0.0586,-1.99219 l 0,-11.77734 q 0,-4.04297 2.30469,-6.17187 2.32422,-2.14844 6.48438,-2.14844 8.4375,0 8.4375,8.32031 l 0,2.12891 q 0,3.96484 -0.0781,5.44922 l -10.15625,0 0,4.10156 q 0,0.19531 -0.0195,0.64453 0,0.42969 0,0.66406 0,0.70313 0.0586,1.21094 0.0586,0.48828 0.21485,1.01562 0.15625,0.50782 0.50781,0.78125 0.37109,0.25391 0.91797,0.25391 0.56641,0 0.91797,-0.39062 0.35156,-0.41016 0.48828,-1.15235 0.15625,-0.76172 0.19531,-1.34765 0.0391,-0.58594 0.0391,-1.46485 0,-1.71875 -0.0391,-1.875 l 6.95313,0 0,1.66016 q 0,2.4414 -0.3711,4.16015 -0.37109,1.71875 -1.32812,3.10547 -0.9375,1.36719 -2.69531,2.05078 -1.75782,0.6836 -4.39454,0.6836 z m 0.27344,-24.7461 q -0.54687,0 -0.91797,0.29297 -0.37109,0.27344 -0.54687,0.83985 -0.17578,0.5664 -0.23438,1.17187 -0.0586,0.58594 -0.0586,1.44531 0,0.41016 0.0195,1.23047 0.0195,0.82032 0.0195,1.23047 l 3.28125,0 0,-3.04687 q 0,-3.16407 -1.5625,-3.16407 z" />
      <path
         style="fill:#ffffff"
         d="m 390.66992,245.92794 0,-29.29688 6.99219,0 0,3.26172 q 0.58594,-2.01172 1.64062,-2.8125 1.05469,-0.80078 2.67579,-0.80078 1.95312,0 3.4375,1.21094 1.48437,1.1914 1.48437,3.47656 l 0,9.80469 -6.83594,0 0,-7.01172 q 0,-0.52735 -0.0586,-0.87891 -0.0391,-0.37109 -0.3125,-0.70312 -0.25391,-0.33204 -0.74219,-0.33204 -0.50781,0 -0.89844,0.44922 -0.39062,0.44922 -0.39062,1.23047 l 0,22.40235 -6.99219,0 z" />
      <path
         style="fill:#ffffff"
         d="m 418.38477,225.36153 -0.0391,-1.11328 q 0,-0.39063 -0.0586,-0.78125 -0.0586,-0.39063 -0.21484,-0.80078 -0.15625,-0.42969 -0.46875,-0.6836 -0.3125,-0.2539 -0.74219,-0.2539 -0.72266,0 -1.11328,0.41015 -0.3711,0.41016 -0.3711,1.15235 0,1.5625 1.25,2.48047 l 4.31641,3.16406 q 1.28906,0.95703 2.22656,2.01172 0.9375,1.05468 1.40625,1.93359 0.48828,0.85938 0.76172,1.85547 0.29297,0.99609 0.35156,1.62109 0.0586,0.625 0.0586,1.40625 0,4.19922 -2.38282,6.36719 -2.36328,2.14844 -6.42578,2.14844 -8.67187,0 -8.67187,-8.82813 l 0.0391,-2.32422 6.99219,0 0.0391,3.4375 q 0,0.70313 0.15625,1.17188 0.17578,0.44922 0.46875,0.64453 0.29297,0.19531 0.52734,0.25391 0.25391,0.0586 0.56641,0.0586 1.40625,0 1.40625,-2.28516 0,-0.58593 -0.0195,-0.83984 -0.0195,-0.27344 -0.15625,-0.78125 -0.11719,-0.52734 -0.41016,-0.91797 -0.27343,-0.39062 -0.82031,-0.95703 -0.52734,-0.56641 -1.34766,-1.19141 l -3.73046,-2.87109 q -1.21094,-0.9375 -1.97266,-1.81641 -0.74219,-0.89843 -1.09375,-1.875 -0.33203,-0.99609 -0.42969,-1.77734 -0.0976,-0.80078 -0.0976,-2.05078 0,-2.24609 1.28906,-3.88672 1.28906,-1.64062 3.20312,-2.40234 1.9336,-0.76172 4.17969,-0.76172 4.12109,0 6.30859,2.08984 2.20704,2.08985 2.20704,6.44531 l 0,0.54688 -7.1875,0 z" />
    </g>
  </g>
</svg>
